<svg xmlns="http://www.w3.org/2000/svg" xmlns:xlink="http://www.w3.org/1999/xlink" width="816" zoomAndPan="magnify" viewBox="0 0 612 791.999994" height="1056" preserveAspectRatio="xMidYMid meet" version="1.2"><defs><clipPath id="1f64eb9117"><path d="M 0 567.089844 L 612 567.089844 L 612 792 L 0 792 Z M 0 567.089844 "/></clipPath></defs><g id="b90652e683"><path style=" stroke:none;fill-rule:nonzero;fill:#fcba76;fill-opacity:1;" d="M 0.167969 568.132812 L 611.773438 568.132812 L 611.773438 791.167969 L 0.167969 791.167969 Z M 0.167969 568.132812 "/><g clip-rule="nonzero" clip-path="url(#1f64eb9117)"><path style=" stroke:none;fill-rule:nonzero;fill:#ffe1b1;fill-opacity:1;" d="M 179.269531 791.167969 L 210.648438 722.292969 L 325.152344 723.191406 L 315.648438 791.167969 Z M 432.140625 722.292969 L 439.296875 791.167969 L 559.988281 791.167969 L 534.148438 722.292969 Z M 508.207031 653.234375 L 534.136719 722.292969 L 611.488281 722.292969 L 611.773438 660.492188 L 606.222656 653.234375 Z M 335.453125 653.234375 L 325.152344 723.191406 L 432.128906 722.292969 L 423.5 653.234375 Z M 210.648438 722.292969 L 244.089844 653.234375 L 144.402344 653.234375 L 84.457031 722.292969 Z M 3.273438 697.128906 L 49.039062 650.984375 L 1.445312 650.984375 Z M 266.394531 605.828125 L 244.101562 653.234375 L 335.453125 653.234375 L 342.265625 605.777344 Z M 418.074219 605.667969 L 418.648438 610.675781 L 423.511719 653.246094 L 508.207031 653.246094 L 490.308594 605.542969 Z M 342.253906 605.777344 L 418.074219 605.667969 L 413.652344 567.089844 L 347.800781 567.089844 Z M 569.625 605.371094 L 540.347656 567.089844 L 475.871094 567.089844 L 490.308594 605.542969 Z M 266.394531 605.828125 L 284.589844 567.089844 L 213.9375 567.089844 L 182.707031 605.777344 Z M 103.816406 606.945312 L 144.761719 567.175781 L 64.816406 568.132812 L 20.140625 606.894531 Z M 569.625 605.371094 L 606.222656 653.246094 L 611.773438 653.246094 L 611.488281 605.273438 Z M 104.53125 605.136719 L 47.160156 653.234375 L 144.402344 653.234375 L 182.707031 605.777344 Z M 2.425781 607.519531 L 2.535156 622.898438 L 20.140625 606.90625 Z M 39.96875 791.695312 L 82.714844 725.597656 L 0.695312 723.65625 L 0.683594 792.066406 Z M 39.96875 791.695312 "/></g></g></svg>