<svg xmlns="http://www.w3.org/2000/svg" xmlns:xlink="http://www.w3.org/1999/xlink" width="500" zoomAndPan="magnify" viewBox="0 0 375 374.999991" height="500" preserveAspectRatio="xMidYMid meet" version="1.2"><defs><clipPath id="fc2131234c"><path d="M 11 10.4375 L 357 10.4375 L 357 356 L 11 356 Z M 11 10.4375 "/></clipPath></defs><g id="a411af884e"><g clip-rule="nonzero" clip-path="url(#fc2131234c)"><path style=" stroke:none;fill-rule:nonzero;fill:#000000;fill-opacity:1;" d="M 128.375 290.023438 C 290.589844 300.695312 391.417969 148.820312 316.71875 15.882812 C 316.144531 14.8125 315.9375 13.855469 316.101562 13.015625 C 316.183594 12.480469 316.308594 11.980469 316.472656 11.523438 C 316.800781 10.453125 317.292969 10.414062 317.949219 11.40625 C 357.390625 66.664062 366.429688 122.609375 345.066406 179.242188 C 308.003906 277.203125 229.898438 324.273438 110.742188 320.445312 C 106.628906 320.292969 103.757812 321.9375 102.113281 325.382812 L 89.171875 351.90625 C 87.757812 354.859375 84.039062 356.183594 80.871094 354.867188 C 79.855469 354.449219 78.972656 353.777344 78.324219 352.941406 L 12.753906 266.605469 C 10.90625 264.25 11.464844 260.945312 13.992188 259.222656 C 14.855469 258.636719 15.882812 258.289062 16.949219 258.222656 L 131.460938 248.234375 C 134.101562 248.007812 136.460938 249.761719 136.738281 252.164062 C 136.835938 252.984375 136.667969 253.8125 136.269531 254.550781 L 122.832031 281.179688 C 121.257812 284.273438 122.675781 287.972656 125.996094 289.4375 C 126.742188 289.773438 127.546875 289.972656 128.375 290.023438 Z M 128.375 290.023438 "/></g><g style="fill:#000000;fill-opacity:1;"><g transform="translate(140.392887, 285.692292)"><path style="stroke:none" d="M 25.21875 -32.0625 L 25.265625 -26.765625 L 16.078125 -26.6875 L 16.328125 -0.15625 L 10.0625 -0.09375 L 9.8125 -26.625 L 0.625 -26.546875 L 0.578125 -31.84375 Z M 25.21875 -32.0625 "/></g></g><g style="fill:#000000;fill-opacity:1;"><g transform="translate(169.25917, 285.276829)"><path style="stroke:none" d="M 10.90625 -1.421875 C 8.238281 -0.960938 6.148438 -1.347656 4.640625 -2.578125 C 3.128906 -3.816406 2.140625 -5.789062 1.671875 -8.5 L -1.046875 -24.1875 L 4.890625 -25.21875 L 7.46875 -10.296875 C 7.71875 -8.847656 8.210938 -7.84375 8.953125 -7.28125 C 9.691406 -6.726562 10.710938 -6.566406 12.015625 -6.796875 C 13.648438 -7.078125 14.832031 -7.835938 15.5625 -9.078125 C 16.300781 -10.316406 16.46875 -12.09375 16.0625 -14.40625 L 13.921875 -26.78125 L 19.859375 -27.796875 L 23.953125 -4.140625 L 18.25 -3.15625 L 17.640625 -6.640625 L 17.171875 -6.671875 C 16.648438 -5.179688 15.898438 -4.003906 14.921875 -3.140625 C 13.941406 -2.285156 12.601562 -1.710938 10.90625 -1.421875 Z M 10.90625 -1.421875 "/></g></g><g style="fill:#000000;fill-opacity:1;"><g transform="translate(198.623054, 279.729727)"><path style="stroke:none" d="M 3.28125 -1.0625 L -4.0625 -23.921875 L 1.515625 -25.703125 L 2.609375 -22.296875 L 3.0625 -22.375 C 3.207031 -23.8125 3.632812 -24.972656 4.34375 -25.859375 C 5.0625 -26.742188 6.0625 -27.390625 7.34375 -27.796875 C 8.644531 -28.222656 9.703125 -28.320312 10.515625 -28.09375 L 11.140625 -22.828125 L 10.71875 -22.59375 C 10.300781 -22.632812 9.910156 -22.632812 9.546875 -22.59375 C 9.179688 -22.5625 8.75 -22.460938 8.25 -22.296875 C 6.644531 -21.785156 5.597656 -20.828125 5.109375 -19.421875 C 4.628906 -18.023438 4.789062 -16.085938 5.59375 -13.609375 L 9.03125 -2.90625 Z M 3.28125 -1.0625 "/></g></g><g style="fill:#000000;fill-opacity:1;"><g transform="translate(218.664202, 273.47142)"><path style="stroke:none" d="M 3.109375 -1.5 L -7.375 -23.109375 L -2.15625 -25.640625 L -0.609375 -22.46875 L -0.15625 -22.5625 C 0 -25.675781 1.585938 -27.960938 4.609375 -29.421875 C 7.097656 -30.628906 9.253906 -30.835938 11.078125 -30.046875 C 12.898438 -29.253906 14.441406 -27.5625 15.703125 -24.96875 L 22.515625 -10.921875 L 17.09375 -8.296875 L 10.609375 -21.671875 C 9.910156 -23.109375 9.117188 -24.003906 8.234375 -24.359375 C 7.359375 -24.710938 6.285156 -24.582031 5.015625 -23.96875 C 3.472656 -23.21875 2.507812 -22.125 2.125 -20.6875 C 1.738281 -19.257812 2.066406 -17.46875 3.109375 -15.3125 L 8.53125 -4.140625 Z M 3.109375 -1.5 "/></g></g><g style="fill:#000000;fill-opacity:1;"><g transform="translate(245.258573, 259.904685)"><path style="stroke:none" d=""/></g></g><g style="fill:#000000;fill-opacity:1;"><g transform="translate(255.745088, 253.633264)"><path style="stroke:none" d="M -0.078125 -40.796875 L 3.234375 -36.671875 L -3.921875 -30.90625 L 12.71875 -10.234375 L 7.84375 -6.3125 L -8.796875 -26.984375 L -15.953125 -21.21875 L -19.265625 -25.34375 Z M -0.078125 -40.796875 "/></g></g><g style="fill:#000000;fill-opacity:1;"><g transform="translate(278.167167, 235.417344)"><path style="stroke:none" d="M 2.296875 -2.578125 L -22.78125 -25.015625 L -18.75 -29.5 L -9.234375 -20.984375 L -8.84375 -21.28125 C -9.195312 -22.644531 -9.222656 -23.972656 -8.921875 -25.265625 C -8.628906 -26.554688 -7.929688 -27.816406 -6.828125 -29.046875 C -3.304688 -32.992188 0.691406 -32.96875 5.171875 -28.96875 L 16.6875 -18.65625 L 12.671875 -14.15625 L 1.734375 -23.953125 C 0.503906 -25.046875 -0.597656 -25.597656 -1.578125 -25.609375 C -2.566406 -25.617188 -3.523438 -25.109375 -4.453125 -24.078125 C -5.578125 -22.828125 -6.046875 -21.457031 -5.859375 -19.96875 C -5.679688 -18.476562 -4.703125 -16.9375 -2.921875 -15.34375 L 6.328125 -7.0625 Z M 2.296875 -2.578125 "/></g></g><g style="fill:#000000;fill-opacity:1;"><g transform="translate(298.365404, 212.423644)"><path style="stroke:none" d="M 3.78125 -25.71875 L -4.515625 -12.71875 C -2.671875 -11.738281 -1.070312 -11.421875 0.28125 -11.765625 C 1.632812 -12.109375 2.785156 -13.019531 3.734375 -14.5 C 4.472656 -15.65625 4.851562 -16.734375 4.875 -17.734375 C 4.894531 -18.742188 4.609375 -19.75 4.015625 -20.75 L 4.265625 -21.125 L 8.578125 -23.140625 C 9.578125 -21.566406 10.085938 -19.832031 10.109375 -17.9375 C 10.140625 -16.039062 9.445312 -13.976562 8.03125 -11.75 C 6.695312 -9.65625 5.144531 -8.101562 3.375 -7.09375 C 1.613281 -6.082031 -0.3125 -5.660156 -2.40625 -5.828125 C -4.507812 -6.003906 -6.695312 -6.816406 -8.96875 -8.265625 C -11.257812 -9.722656 -12.914062 -11.390625 -13.9375 -13.265625 C -14.957031 -15.148438 -15.382812 -17.078125 -15.21875 -19.046875 C -15.050781 -21.023438 -14.378906 -22.941406 -13.203125 -24.796875 C -11.378906 -27.648438 -9.222656 -29.351562 -6.734375 -29.90625 C -4.242188 -30.46875 -1.53125 -29.8125 1.40625 -27.9375 C 2.46875 -27.257812 3.265625 -26.695312 3.796875 -26.25 Z M -2.296875 -23.46875 C -3.867188 -24.394531 -5.21875 -24.75 -6.34375 -24.53125 C -7.46875 -24.3125 -8.4375 -23.5625 -9.25 -22.28125 C -10.882812 -19.707031 -10.378906 -17.253906 -7.734375 -14.921875 Z M -2.296875 -23.46875 "/></g></g><g style="fill:#000000;fill-opacity:1;"><g transform="translate(312.840112, 188.758604)"><path style="stroke:none" d=""/></g></g><g style="fill:#000000;fill-opacity:1;"><g transform="translate(318.717249, 177.871356)"><path style="stroke:none" d="M 1.375 -3.90625 L -28.640625 -14.46875 L -26.5625 -20.390625 L -14.3125 -16.078125 L -14.078125 -16.75 L -22.796875 -31.078125 L -20.65625 -37.15625 L -20.140625 -36.984375 L -10.375 -21.125 L 9.25 -27.921875 L 9.765625 -27.734375 L 7.40625 -21.03125 L -9.265625 -15.0625 L -9.5 -14.390625 L 3.453125 -9.828125 Z M 1.375 -3.90625 "/></g></g><g style="fill:#000000;fill-opacity:1;"><g transform="translate(329.096166, 147.549124)"><path style="stroke:none" d="M 0.578125 -3.40625 L -23.109375 -7.375 L -22.15625 -13.09375 L -18.671875 -12.515625 L -18.484375 -12.9375 C -20.921875 -14.863281 -21.863281 -17.484375 -21.3125 -20.796875 C -20.851562 -23.523438 -19.769531 -25.40625 -18.0625 -26.4375 C -16.363281 -27.46875 -14.09375 -27.742188 -11.25 -27.265625 L 4.140625 -24.6875 L 3.140625 -18.734375 L -11.515625 -21.1875 C -13.097656 -21.457031 -14.285156 -21.335938 -15.078125 -20.828125 C -15.878906 -20.316406 -16.394531 -19.363281 -16.625 -17.96875 C -16.914062 -16.269531 -16.585938 -14.851562 -15.640625 -13.71875 C -14.703125 -12.582031 -13.050781 -11.816406 -10.6875 -11.421875 L 1.5625 -9.359375 Z M 0.578125 -3.40625 "/></g></g><g style="fill:#000000;fill-opacity:1;"><g transform="translate(333.95247, 117.237942)"><path style="stroke:none" d="M 0.4375 -13.953125 C 0.4375 -11.597656 -0.0390625 -9.53125 -1 -7.75 C -1.957031 -5.976562 -3.367188 -4.597656 -5.234375 -3.609375 C -7.097656 -2.628906 -9.351562 -2.140625 -12 -2.140625 C -14.632812 -2.128906 -16.890625 -2.613281 -18.765625 -3.59375 C -20.640625 -4.570312 -22.0625 -5.945312 -23.03125 -7.71875 C -24 -9.5 -24.484375 -11.566406 -24.484375 -13.921875 C -24.492188 -16.273438 -24.015625 -18.335938 -23.046875 -20.109375 C -22.085938 -21.890625 -20.671875 -23.269531 -18.796875 -24.25 C -16.921875 -25.238281 -14.664062 -25.738281 -12.03125 -25.75 C -9.382812 -25.75 -7.128906 -25.257812 -5.265625 -24.28125 C -3.398438 -23.300781 -1.984375 -21.921875 -1.015625 -20.140625 C -0.0546875 -18.367188 0.425781 -16.304688 0.4375 -13.953125 Z M -4.671875 -13.953125 C -4.679688 -17.679688 -7.132812 -19.539062 -12.03125 -19.53125 C -14.5625 -19.53125 -16.414062 -19.046875 -17.59375 -18.078125 C -18.78125 -17.117188 -19.367188 -15.734375 -19.359375 -13.921875 C -19.359375 -10.191406 -16.910156 -8.332031 -12.015625 -8.34375 C -7.117188 -8.351562 -4.671875 -10.222656 -4.671875 -13.953125 Z M -4.671875 -13.953125 "/></g></g><g style="fill:#000000;fill-opacity:1;"><g transform="translate(333.722804, 86.725636)"><path style="stroke:none" d="M -2.40625 -16.609375 C -1.882812 -13.597656 -2.625 -11.160156 -4.625 -9.296875 L -4.453125 -8.84375 L -1.609375 -9.34375 L -0.59375 -3.40625 L -33.765625 2.328125 L -34.78125 -3.609375 L -22.46875 -5.734375 L -22.46875 -6.21875 C -23.75 -6.832031 -24.753906 -7.644531 -25.484375 -8.65625 C -26.222656 -9.664062 -26.722656 -10.941406 -26.984375 -12.484375 C -27.316406 -14.398438 -27.15625 -16.148438 -26.5 -17.734375 C -25.851562 -19.328125 -24.675781 -20.679688 -22.96875 -21.796875 C -21.269531 -22.921875 -19.066406 -23.71875 -16.359375 -24.1875 C -13.671875 -24.65625 -11.335938 -24.628906 -9.359375 -24.109375 C -7.378906 -23.597656 -5.804688 -22.691406 -4.640625 -21.390625 C -3.472656 -20.097656 -2.726562 -18.503906 -2.40625 -16.609375 Z M -7.140625 -13.9375 C -7.441406 -15.6875 -8.25 -16.914062 -9.5625 -17.625 C -10.882812 -18.34375 -12.796875 -18.484375 -15.296875 -18.046875 C -17.785156 -17.617188 -19.535156 -16.847656 -20.546875 -15.734375 C -21.554688 -14.617188 -21.910156 -13.1875 -21.609375 -11.4375 C -21.316406 -9.757812 -20.484375 -8.535156 -19.109375 -7.765625 C -17.742188 -6.992188 -15.851562 -6.816406 -13.4375 -7.234375 C -11 -7.660156 -9.265625 -8.460938 -8.234375 -9.640625 C -7.210938 -10.828125 -6.847656 -12.257812 -7.140625 -13.9375 Z M -7.140625 -13.9375 "/></g></g></g></svg>